# xmcd
#
# Track frame offsets: 
#        150
#        29775
#        47300
#        65420
#        85490
#        103907
#        123397
#        143907
#        166325
#        188212
#        219420
#        234770
#        258845
#        275600
#
# Disc length: 3929 seconds
#
# Revision: 7
# Processed by: cddbd v1.5.2PL0 Copyright (c) Steve Scherf et al.
# Submitted via: ExactAudioCopy v1.0b3
#
DISCID=c70f570e
DTITLE=Vari - New Age Music and New Sounds Vol. 38 "Eco"
DYEAR=1994
DGENRE=New Age
TTITLE0=Coen Bais - Socu
TTITLE1=Shadowfax - Remembrance
TTITLE2=George Bishop - Midnight in berlin
TTITLE3=America - Young moon
TTITLE4=Morscheck and Burgmann - Zwischenwasser
TTITLE5=3rd Force - We sould be together
TTITLE6=Scopece - While it's raining
TTITLE7=Hans Jurgen Hufeisen - Ruine
TTITLE8=Michael Sanchez - Tholos
TTITLE9=Mind Flux - Crystal sky
TTITLE10=Danny Wright - A day in the life
TTITLE11=Cusco - Mexica
TTITLE12=Chip Davis - Midi didi
TTITLE13=Peter Blake - Time was
EXTD=YEAR: 1994
EXTT0=
EXTT1=
EXTT2=
EXTT3=
EXTT4=
EXTT5=
EXTT6=
EXTT7=
EXTT8=
EXTT9=
EXTT10=
EXTT11=
EXTT12=
EXTT13=
PLAYORDER=
